# xmcd
#
# Track frame offsets:
#	150
#	21790
#	38511
#	59302
#	74282
#	88626
#	90512
#	116746
#	133285
#	150358
#	173122
#	186540
#	204166
#	221874
#	232090
#	240613
#	249860
#	274236
#	292429
#	301250
#
# Disc length: 4618 seconds
#
# Revision: 0
# Processed by: cddbd v1.5.2PL0 Copyright (c) Steve Scherf et al.
# Submitted via: audiograbber 1.83.01
#
DISCID=24120814
DTITLE=The Future and The Human League - The Golden Hour of The Future
DYEAR=1977
DGENRE=Electronic
TTITLE0=The Human League - Dance Like A Star
TTITLE1=The Future - Looking For The Black Haired Girls
TTITLE2=The Human League - 4JG
TTITLE3=The Future - Blank Clocks
TTITLE4=The Future - Cairo
TTITLE5=The Human League - Dominion Jingle
TTITLE6=The Future - Dada Dada Duchamp Vortex
TTITLE7=The Future - Daz
TTITLE8=The Future - Future Religion
TTITLE9=The Human League - Disco Disaster
TTITLE10=The Human League - Interface
TTITLE11=Philip Oakey - The Circus Of Dr Lao
TTITLE12=The Human League - Reach Out (I'll Be There)
TTITLE13=The Human League - New Pink Floyd
TTITLE14=The Human League - Once Upon A Time In The West
TTITLE15=The Human League - Overkill Disaster Crash (v.1)
TTITLE16=The Human League - Year Of The Jet Packs
TTITLE17=The Future - Pulse Lovers
TTITLE18=The Human League - King Of Kings
TTITLE19=The Human League - Last Man On Earth
EXTD=
EXTT0=
EXTT1=
EXTT2=
EXTT3=
EXTT4=
EXTT5=
EXTT6=
EXTT7=
EXTT8=
EXTT9=
EXTT10=
EXTT11=
EXTT12=
EXTT13=
EXTT14=
EXTT15=
EXTT16=
EXTT17=
EXTT18=
EXTT19=
PLAYORDER=
